# Blender 4.2.1 LTS
# www.blender.org
mtllib collision.mtl
o textured_simple
v -0.024801 -0.036766 -0.017158
v -0.024775 -0.010707 -0.015796
v 0.024185 -0.035163 -0.016659
v 0.018967 -0.037462 -0.008860
v -0.019843 -0.038239 0.029166
v -0.025505 -0.034891 0.033229
v -0.024755 0.034694 -0.016978
v -0.020399 0.038852 -0.011307
v -0.024579 0.036187 0.033442
v 0.025494 0.036721 -0.015871
v 0.019578 -0.038150 0.029349
v 0.024055 -0.035003 0.032552
v 0.026247 0.036378 0.023557
v 0.023932 0.034503 0.032354
vn -0.4952 -0.8684 0.0254
vn -0.0200 0.8136 -0.5811
vn -0.9999 0.0130 -0.0085
vn -1.0000 0.0005 0.0035
vn 0.0225 0.0029 0.9997
vn 0.0527 0.9965 0.0643
vn 0.0098 0.0108 -0.9999
vn 0.0024 -0.9998 -0.0180
vn 0.5864 -0.8097 -0.0240
vn 0.0219 0.0025 -0.9998
vn 0.0342 -0.9646 -0.2615
vn -0.9999 0.0017 -0.0140
vn -0.0101 -0.9995 -0.0307
vn -1.0000 0.0006 0.0072
vn -0.6770 0.7357 -0.0194
vn 0.0136 -0.0032 0.9999
vn 0.4082 -0.9129 0.0041
vn 0.9997 -0.0180 -0.0192
vn 0.0035 -0.7452 0.6668
vn -0.0021 1.0000 0.0087
vn 0.0387 0.9752 0.2181
vn 0.9995 -0.0303 0.0028
vn 0.9670 0.0024 0.2549
vt 0.167176 0.572186
vt 0.395810 0.587835
vt 0.186023 0.613112
vt 0.379430 0.232763
vt 0.548409 0.245734
vt 0.407455 0.265969
vt 0.183032 0.259743
vt 0.388547 0.478434
vt 0.841574 0.593753
vt 0.859158 0.279033
vt 0.628219 0.587988
vt 0.356550 0.788426
vt 0.180570 0.790254
vt 0.216777 0.022743
s 0
usemtl material_0.017
f 6/1/1 1/2/1 5/3/1
f 8/4/2 10/5/2 7/6/2
f 9/7/3 2/8/3 6/1/3
f 7/6/4 2/8/4 9/7/4
f 9/7/5 12/9/5 14/10/5
f 10/5/6 8/4/6 9/7/6
f 10/5/7 3/11/7 1/2/7
f 5/3/8 4/12/8 11/13/8
f 12/9/9 11/13/9 4/12/9
f 10/5/10 1/2/10 7/6/10
f 3/11/11 4/12/11 1/2/11
f 2/8/12 1/2/12 6/1/12
f 5/3/13 1/2/13 4/12/13
f 2/8/14 7/6/14 1/2/14
f 9/7/15 8/4/15 7/6/15
f 9/7/16 6/1/16 12/9/16
f 3/11/17 12/9/17 4/12/17
f 10/5/18 13/14/18 3/11/18
f 5/3/19 11/13/19 12/9/19 6/1/19
f 13/14/20 10/5/20 9/7/20
f 14/10/21 13/14/21 9/7/21
f 13/14/22 12/9/22 3/11/22
f 14/10/23 12/9/23 13/14/23
