# Blender 4.2.1 LTS
# www.blender.org
mtllib efg-c80_finger_c01v2.mtl
o EFG-C80_fingerc01v2
v -0.044500 0.005000 0.060000
v -0.047500 0.003000 0.060000
v -0.046500 0.003000 0.060000
v -0.047500 0.011000 0.060000
v -0.042500 0.011000 0.060000
v -0.042500 0.005000 0.060000
v -0.044500 0.005000 0.087000
v -0.047000 0.005000 0.087000
v -0.042500 0.005000 0.090000
v -0.042500 -0.009000 0.090000
v -0.042500 -0.009000 0.060000
v -0.042500 -0.015000 0.060000
v -0.042500 -0.015000 0.038588
v -0.042500 -0.015000 0.022000
v -0.042500 0.011000 0.022000
v -0.046500 0.003000 0.087000
v -0.042500 0.011000 0.018000
v -0.047500 0.003000 0.087000
v -0.047500 0.004500 0.089500
v -0.047500 0.004500 0.087000
v -0.047500 0.000500 0.087000
v -0.047500 -0.004500 0.087000
v -0.047500 -0.008500 0.089500
v -0.047500 -0.007000 0.087000
v -0.047500 -0.008500 0.087000
v -0.047500 0.008000 0.057000
v -0.047500 0.000500 0.060000
v -0.047500 0.003000 0.057000
v -0.047500 0.000500 0.057000
v -0.047500 -0.004500 0.060000
v -0.047500 -0.004500 0.057000
v -0.047500 -0.007000 0.057000
v -0.047500 -0.012000 0.057000
v -0.047500 -0.015000 0.060000
v -0.047500 0.008000 0.023000
v -0.047500 0.011000 0.019000
v -0.047500 0.008000 0.020000
v -0.047500 0.008000 0.019000
v -0.047500 0.003000 0.020000
v -0.047500 0.003000 0.023000
v -0.047500 0.000500 0.020000
v -0.047500 0.000500 0.023000
v -0.047500 0.003000 0.019000
v -0.047500 0.000500 0.019000
v -0.047500 -0.004500 0.020000
v -0.047500 -0.004500 0.023000
v -0.047500 -0.007000 0.020000
v -0.047500 -0.004500 0.019000
v -0.047500 -0.007000 0.023000
v -0.047500 -0.007000 0.019000
v -0.047500 -0.012000 0.023000
v -0.047500 -0.016000 0.038588
v -0.047500 -0.012000 0.020000
v -0.047500 -0.025000 0.022000
v -0.047500 -0.012000 0.018000
v -0.047500 -0.039500 0.020000
v -0.047000 0.005000 0.090000
v -0.041500 0.010000 0.022000
v -0.041500 -0.015000 0.022000
v -0.044500 -0.009000 0.087000
v -0.047000 -0.009000 0.087000
v -0.044500 -0.009000 0.060000
v -0.047500 -0.007000 0.060000
v -0.047500 -0.015000 0.038588
v -0.041500 -0.015000 0.038321
v -0.041634 -0.015000 0.038588
v -0.041500 0.010000 0.018000
v -0.044500 0.006000 0.018000
v -0.044500 0.005000 0.018000
v -0.044500 -0.001500 0.018000
v -0.041500 -0.011500 0.018000
v -0.044500 -0.002500 0.018000
v -0.046500 -0.007000 0.018000
v -0.046500 -0.004500 0.018000
v -0.044500 -0.010000 0.018000
v -0.046500 -0.012000 0.018000
v -0.046500 0.011000 0.018000
v -0.046500 0.008000 0.018000
v -0.047000 -0.009000 0.090000
v -0.046500 -0.007000 0.087000
v -0.046500 -0.007000 0.060000
v -0.046500 0.008000 0.020000
v -0.044500 0.006000 0.020000
v -0.046500 0.003000 0.020000
v -0.044500 0.005000 0.020000
v -0.046500 0.003000 0.018000
v -0.046500 0.000500 0.018000
v -0.042500 -0.025000 0.023000
v -0.042500 -0.016000 0.038588
v -0.046500 0.000500 0.020000
v -0.047500 -0.025000 0.023000
v -0.041500 -0.025000 0.022000
v -0.041500 -0.025000 0.023000
v -0.044500 -0.001500 0.020000
v -0.046500 -0.004500 0.020000
v -0.044500 -0.002500 0.020000
v -0.047500 -0.027000 0.020000
v -0.041500 -0.027000 0.020000
v -0.041500 -0.039500 0.020000
v -0.047500 -0.039500 0.018000
v -0.041500 -0.039500 0.017000
v -0.046500 -0.007000 0.020000
v -0.046500 -0.039500 0.017000
v -0.044500 -0.009000 0.020000
v -0.046500 -0.012000 0.020000
v -0.044500 -0.010000 0.020000
v -0.044500 -0.012000 0.017000
v -0.044500 -0.012000 0.018000
v -0.046500 -0.007000 0.057000
v -0.044500 -0.009000 0.057000
v -0.044500 -0.010000 0.057000
v -0.046500 -0.012000 0.057000
v -0.046500 -0.012000 0.023000
v -0.044500 -0.010000 0.023000
v -0.044500 -0.009000 0.023000
v -0.046500 -0.007000 0.023000
v -0.046500 0.003000 0.023000
v -0.044500 0.005000 0.023000
v -0.046500 0.008000 0.023000
v -0.044500 0.006000 0.023000
v -0.046500 0.008000 0.057000
v -0.044500 0.006000 0.057000
v -0.044500 0.005000 0.057000
v -0.046500 0.003000 0.057000
v -0.046500 -0.004500 0.023000
v -0.044500 -0.002500 0.023000
v -0.044500 -0.001500 0.023000
v -0.046500 0.000500 0.023000
v -0.046500 0.000500 0.057000
v -0.044500 -0.001500 0.057000
v -0.044500 -0.002500 0.057000
v -0.046500 -0.004500 0.057000
v -0.046500 -0.004500 0.087000
v -0.046500 -0.004500 0.060000
v -0.044500 -0.002500 0.060000
v -0.044500 -0.001500 0.060000
v -0.046500 0.000500 0.060000
v -0.046500 0.000500 0.087000
v -0.044500 -0.001500 0.087000
v -0.044500 -0.002500 0.087000
v -0.041500 -0.011500 0.017000
v -0.041500 -0.023845 0.023000
v -0.044500 -0.011500 0.018000
v -0.044500 -0.011500 0.017000
v -0.044500 -0.009000 0.018000
v -0.046500 -0.012000 0.017000
vn -0.0000 -0.0000 1.0000
vn -0.0000 1.0000 -0.0000
vn 1.0000 -0.0000 -0.0000
vn -0.7071 0.7071 -0.0000
vn -1.0000 -0.0000 -0.0000
vn -0.0000 -0.0000 -1.0000
vn -0.0000 -1.0000 -0.0000
vn 0.7071 0.7071 -0.0000
vn -0.7071 -0.0000 -0.7071
vn -0.7071 -0.0000 0.7071
vn -0.7071 -0.7071 -0.0000
vn -0.0000 -0.8660 0.5000
vn -0.0000 -0.7071 0.7071
vn 0.7071 -0.6124 0.3536
vn 0.7071 -0.6124 0.3535
s 0
f 1//1 2//1 3//1
f 4//1 2//1 1//1
f 5//1 1//1 6//1
f 5//1 4//1 1//1
f 7//2 6//2 1//2
f 57//2 7//2 8//2
f 9//2 7//2 57//2
f 9//2 6//2 7//2
f 10//3 11//3 9//3
f 11//3 6//3 9//3
f 12//3 13//3 11//3
f 11//3 13//3 6//3
f 14//3 15//3 13//3
f 6//3 15//3 5//3
f 13//3 15//3 6//3
f 16//4 7//4 1//4
f 16//4 1//4 3//4
f 15//2 4//2 5//2
f 15//2 77//2 36//2
f 15//2 36//2 4//2
f 17//2 77//2 15//2
f 16//2 3//2 2//2
f 16//2 2//2 18//2
f 18//5 19//5 20//5
f 21//5 19//5 18//5
f 22//5 19//5 21//5
f 23//5 19//5 22//5
f 24//5 23//5 22//5
f 25//5 23//5 24//5
f 2//5 21//5 18//5
f 2//5 4//5 26//5
f 27//5 21//5 2//5
f 28//5 2//5 26//5
f 28//5 27//5 2//5
f 29//5 27//5 28//5
f 30//5 24//5 22//5
f 30//5 27//5 29//5
f 63//5 24//5 30//5
f 31//5 30//5 29//5
f 32//5 63//5 30//5
f 32//5 30//5 31//5
f 33//5 63//5 32//5
f 34//5 63//5 33//5
f 35//5 26//5 4//5
f 36//5 35//5 4//5
f 37//5 35//5 36//5
f 38//5 37//5 36//5
f 39//5 40//5 35//5
f 39//5 35//5 37//5
f 41//5 40//5 39//5
f 41//5 42//5 40//5
f 41//5 39//5 43//5
f 44//5 41//5 43//5
f 45//5 42//5 41//5
f 45//5 46//5 42//5
f 47//5 45//5 48//5
f 47//5 49//5 46//5
f 47//5 46//5 45//5
f 50//5 47//5 48//5
f 51//5 52//5 64//5
f 53//5 49//5 47//5
f 53//5 51//5 49//5
f 91//5 52//5 51//5
f 54//5 91//5 51//5
f 54//5 53//5 55//5
f 54//5 51//5 53//5
f 97//5 54//5 55//5
f 100//5 56//5 97//5
f 100//5 97//5 55//5
f 64//5 34//5 51//5
f 51//5 34//5 33//5
f 49//5 32//5 31//5
f 49//5 31//5 46//5
f 28//5 40//5 29//5
f 29//5 40//5 42//5
f 9//1 57//1 79//1
f 9//1 79//1 10//1
f 8//4 19//4 57//4
f 20//4 19//4 8//4
f 16//6 20//6 8//6
f 16//6 8//6 7//6
f 18//6 20//6 16//6
f 58//1 14//1 59//1
f 15//1 14//1 58//1
f 60//7 10//7 79//7
f 61//7 60//7 79//7
f 11//7 10//7 60//7
f 62//7 11//7 60//7
f 62//1 63//1 34//1
f 62//1 34//1 12//1
f 81//1 63//1 62//1
f 11//1 62//1 12//1
f 13//7 12//7 34//7
f 64//7 13//7 34//7
f 65//2 59//2 14//2
f 13//2 66//2 65//2
f 13//2 65//2 14//2
f 58//8 67//8 17//8
f 15//8 58//8 17//8
f 68//6 17//6 67//6
f 78//6 77//6 17//6
f 78//6 17//6 68//6
f 69//6 68//6 67//6
f 70//6 86//6 69//6
f 70//6 69//6 67//6
f 87//6 86//6 70//6
f 71//6 72//6 70//6
f 71//6 70//6 67//6
f 145//6 72//6 71//6
f 73//6 74//6 72//6
f 73//6 72//6 145//6
f 75//6 145//6 71//6
f 143//6 75//6 71//6
f 76//6 143//6 108//6
f 76//6 75//6 143//6
f 77//9 38//9 36//9
f 77//9 78//9 38//9
f 57//10 23//10 79//10
f 19//10 23//10 57//10
f 23//11 25//11 61//11
f 23//11 61//11 79//11
f 61//6 80//6 60//6
f 25//6 24//6 80//6
f 25//6 80//6 61//6
f 63//7 81//7 80//7
f 63//7 80//7 24//7
f 38//7 78//7 82//7
f 38//7 82//7 37//7
f 37//6 82//6 83//6
f 84//6 83//6 85//6
f 39//6 37//6 83//6
f 39//6 83//6 84//6
f 84//2 86//2 43//2
f 84//2 43//2 39//2
f 13//1 89//1 66//1
f 64//1 52//1 89//1
f 64//1 89//1 13//1
f 86//9 44//9 43//9
f 86//9 87//9 44//9
f 52//12 91//12 88//12
f 52//12 88//12 89//12
f 44//7 90//7 41//7
f 87//7 90//7 44//7
f 88//7 91//7 54//7
f 92//7 93//7 88//7
f 92//7 88//7 54//7
f 41//6 90//6 94//6
f 95//6 94//6 96//6
f 95//6 41//6 94//6
f 45//6 41//6 95//6
f 97//13 98//13 54//13
f 54//13 98//13 92//13
f 95//2 74//2 48//2
f 95//2 48//2 45//2
f 97//1 99//1 98//1
f 97//1 56//1 99//1
f 74//9 50//9 48//9
f 74//9 73//9 50//9
f 103//7 56//7 100//7
f 99//7 56//7 103//7
f 101//7 99//7 103//7
f 50//7 73//7 102//7
f 50//7 102//7 47//7
f 100//9 55//9 146//9
f 100//9 146//9 103//9
f 47//6 102//6 104//6
f 105//6 104//6 106//6
f 53//6 47//6 104//6
f 53//6 104//6 105//6
f 76//2 55//2 53//2
f 76//2 53//2 105//2
f 146//2 55//2 76//2
f 107//2 76//2 108//2
f 107//2 146//2 76//2
f 32//6 109//6 110//6
f 111//6 32//6 110//6
f 33//6 111//6 112//6
f 33//6 32//6 111//6
f 113//2 51//2 33//2
f 113//2 33//2 112//2
f 51//1 113//1 114//1
f 49//1 114//1 115//1
f 49//1 115//1 116//1
f 49//1 51//1 114//1
f 49//7 116//7 109//7
f 49//7 109//7 32//7
f 40//1 117//1 118//1
f 119//1 118//1 120//1
f 119//1 40//1 118//1
f 35//1 40//1 119//1
f 35//7 119//7 121//7
f 35//7 121//7 26//7
f 26//6 121//6 122//6
f 26//6 122//6 123//6
f 28//6 123//6 124//6
f 28//6 26//6 123//6
f 28//2 117//2 40//2
f 124//2 117//2 28//2
f 46//1 125//1 126//1
f 46//1 126//1 127//1
f 42//1 127//1 128//1
f 42//1 46//1 127//1
f 128//7 129//7 29//7
f 128//7 29//7 42//7
f 29//6 129//6 130//6
f 29//6 130//6 131//6
f 31//6 131//6 132//6
f 31//6 29//6 131//6
f 132//2 125//2 46//2
f 132//2 46//2 31//2
f 133//2 134//2 30//2
f 133//2 30//2 22//2
f 30//1 134//1 135//1
f 27//1 135//1 136//1
f 27//1 136//1 137//1
f 27//1 30//1 135//1
f 137//7 138//7 21//7
f 137//7 21//7 27//7
f 21//6 138//6 139//6
f 133//6 139//6 140//6
f 133//6 21//6 139//6
f 22//6 21//6 133//6
f 71//3 67//3 58//3
f 71//3 58//3 59//3
f 141//3 71//3 59//3
f 142//3 59//3 65//3
f 92//3 142//3 93//3
f 92//3 59//3 142//3
f 98//3 141//3 59//3
f 98//3 59//3 92//3
f 101//3 98//3 99//3
f 101//3 141//3 98//3
f 80//11 81//11 62//11
f 60//11 80//11 62//11
f 89//14 88//14 142//14
f 89//14 142//14 65//14
f 89//15 65//15 66//15
f 78//11 68//11 83//11
f 78//11 83//11 82//11
f 141//2 144//2 143//2
f 71//2 141//2 143//2
f 69//5 85//5 83//5
f 69//5 83//5 68//5
f 108//5 143//5 107//5
f 107//5 143//5 144//5
f 86//4 85//4 69//4
f 84//4 85//4 86//4
f 76//4 106//4 75//4
f 105//4 106//4 76//4
f 94//11 90//11 87//11
f 94//11 87//11 70//11
f 106//5 104//5 145//5
f 106//5 145//5 75//5
f 96//5 94//5 70//5
f 96//5 70//5 72//5
f 104//11 102//11 73//11
f 104//11 73//11 145//11
f 95//4 96//4 72//4
f 95//4 72//4 74//4
f 93//1 142//1 88//1
f 107//6 144//6 141//6
f 101//6 107//6 141//6
f 103//6 146//6 107//6
f 103//6 107//6 101//6
f 112//4 114//4 113//4
f 112//4 111//4 114//4
f 111//5 110//5 115//5
f 111//5 115//5 114//5
f 110//11 109//11 116//11
f 110//11 116//11 115//11
f 119//11 120//11 122//11
f 119//11 122//11 121//11
f 118//5 123//5 122//5
f 118//5 122//5 120//5
f 124//4 123//4 118//4
f 124//4 118//4 117//4
f 130//11 129//11 128//11
f 130//11 128//11 127//11
f 130//5 127//5 126//5
f 131//5 130//5 126//5
f 132//4 131//4 126//4
f 132//4 126//4 125//4
f 133//4 140//4 135//4
f 133//4 135//4 134//4
f 139//11 138//11 137//11
f 139//11 137//11 136//11
f 140//5 139//5 136//5
f 140//5 136//5 135//5
