# Blender 4.2.1 LTS
# www.blender.org
mtllib collision.mtl
o textured_simple
v -0.008057 -0.057381 -0.003007
v -0.008115 -0.041586 0.001209
v -0.008088 -0.042164 -0.002917
v -0.005540 -0.057614 -0.007190
v -0.007605 -0.057745 0.002980
v -0.001998 -0.057734 -0.009312
v -0.002855 -0.039569 -0.009031
v -0.003037 -0.057949 -0.006491
v -0.003956 -0.056925 -0.003097
v -0.002867 -0.052578 -0.003331
v -0.003456 -0.055203 0.001837
v -0.000656 -0.056330 -0.006126
v -0.001034 -0.032111 -0.009435
v -0.007742 -0.027868 -0.004424
v -0.008597 -0.027782 -0.000885
v -0.005973 -0.038826 -0.006915
v -0.006563 -0.015827 -0.006611
v -0.008790 -0.011873 -0.001407
v -0.002766 -0.007964 -0.009046
v -0.008424 0.002186 -0.003946
v -0.005698 0.000915 -0.007308
v -0.004434 -0.038965 0.007105
v -0.005321 -0.056784 0.001599
v -0.002695 -0.057433 0.005252
v -0.004201 -0.057789 0.007271
v 0.000361 -0.056734 0.008724
v -0.007076 -0.032832 0.004743
v -0.008377 -0.012660 0.001558
v -0.007375 -0.020620 0.004449
v -0.004533 -0.016595 0.007173
v -0.007317 -0.006292 0.004661
v -0.007919 0.004628 0.004023
v -0.005087 -0.001050 0.006919
v -0.009214 0.016372 0.000013
v -0.007401 0.030173 -0.005804
v -0.004928 0.029748 -0.007959
v -0.002136 0.011480 -0.009061
v -0.009405 0.030111 -0.000179
v -0.008195 0.040563 -0.004538
v -0.009289 0.042790 0.001350
v -0.010303 0.056314 -0.003200
v -0.003314 0.034342 -0.007685
v -0.008290 0.034085 -0.002181
v -0.004792 0.039171 -0.007734
v -0.005719 0.056241 -0.008844
v -0.001296 0.056275 -0.009807
v -0.005595 0.056703 -0.003467
v -0.003312 0.055115 -0.005870
v -0.005809 0.062000 -0.002131
v -0.003076 0.062160 -0.004709
v -0.007507 0.017930 0.004613
v -0.004808 0.013917 0.007034
v -0.000678 0.030167 0.008165
v -0.006540 0.030743 0.005660
v -0.006272 0.034374 0.004671
v -0.007259 0.043911 0.005535
v -0.002696 0.035374 0.007080
v -0.000065 0.052918 0.008600
v -0.009867 0.055604 0.003043
v -0.007658 0.056756 0.006275
v -0.005256 0.056918 0.002806
v -0.005108 0.061925 0.002151
v -0.004960 0.056438 0.008264
v -0.001094 0.062082 0.004160
v -0.000328 0.056746 0.004449
v 0.004260 0.056527 0.007000
v 0.003740 -0.057643 -0.006978
v 0.003056 -0.056995 -0.009670
v -0.000825 -0.052458 0.004975
v 0.007355 -0.057448 -0.007454
v 0.003676 -0.052630 -0.006076
v 0.002885 -0.052512 0.005218
v 0.005320 -0.052877 -0.003808
v 0.008429 -0.057880 -0.003450
v 0.007873 -0.038438 -0.006309
v 0.010200 -0.056914 -0.003190
v 0.010236 -0.057419 0.001916
v 0.009337 -0.042098 -0.003713
v 0.009533 -0.035296 -0.001333
v 0.003946 -0.035934 -0.009035
v 0.001935 -0.009363 -0.009110
v 0.006394 -0.013211 -0.007215
v 0.009320 -0.020629 0.001027
v 0.008640 -0.014476 -0.003529
v 0.004650 -0.057444 0.008272
v 0.003785 -0.057782 0.006497
v 0.004771 -0.053737 0.002637
v 0.004902 -0.031917 0.007681
v 0.007031 -0.057208 0.003473
v 0.007666 -0.057715 0.006246
v 0.007934 -0.041946 0.005296
v 0.007072 -0.024113 0.005634
v 0.009246 -0.039664 0.002831
v 0.009458 -0.028023 0.000902
v 0.007438 -0.014382 0.004574
v 0.008143 -0.006744 0.003318
v 0.002649 0.017986 0.007683
v 0.004301 -0.001506 0.007346
v 0.000865 0.029420 -0.008820
v 0.004958 0.000834 -0.007816
v 0.006127 0.013432 -0.006528
v 0.008489 0.004304 -0.002581
v 0.007811 0.019896 -0.002454
v 0.005160 0.031231 -0.006586
v 0.004759 0.021004 -0.007167
v 0.008041 0.029631 0.000105
v 0.001232 0.033936 -0.007772
v 0.003790 0.037704 -0.007044
v 0.005660 0.041362 -0.005852
v 0.006693 0.034698 0.001182
v 0.007475 0.039346 -0.000729
v 0.007947 0.055952 0.001103
v 0.000909 0.056453 -0.005000
v 0.004263 0.056243 -0.007931
v 0.002058 0.061933 -0.003658
v 0.002730 0.062286 0.001297
v 0.003291 0.057081 -0.002114
v 0.007646 0.056365 -0.003755
v 0.004878 0.010166 0.006407
v 0.005784 0.017198 0.005418
v 0.007276 0.013329 0.003677
v 0.007936 0.007219 0.003100
v 0.005322 0.029877 0.005551
v 0.000838 0.039987 0.007773
v 0.004657 0.051787 0.006548
v 0.003963 0.034613 0.005415
v 0.005919 0.040242 0.004531
v 0.002937 0.056948 0.002313
vn -1.0000 -0.0020 -0.0063
vn -0.1692 -0.9845 -0.0470
vn -0.8568 0.0013 -0.5157
vn -0.1009 -0.9885 -0.1124
vn -0.1932 -0.9526 0.2352
vn 0.9698 -0.2436 -0.0132
vn -0.5142 -0.0110 -0.8576
vn 0.4830 -0.7935 0.3703
vn -0.8729 -0.0302 -0.4870
vn -0.9721 -0.0012 -0.2347
vn -0.5618 -0.0009 -0.8273
vn -0.9148 0.0162 -0.4037
vn -0.8444 -0.0146 -0.5355
vn -0.4547 0.0001 -0.8907
vn -0.7742 0.0137 -0.6328
vn -0.9970 -0.0234 0.0739
vn -0.7834 -0.0042 0.6215
vn 0.4638 -0.8712 0.1609
vn 0.2028 -0.9286 -0.3108
vn 0.1067 -0.9898 -0.0948
vn 0.6181 -0.7596 0.2024
vn 0.8084 -0.5569 -0.1907
vn -0.9994 -0.0351 -0.0017
vn -0.8134 -0.1322 0.5665
vn -0.9691 -0.0178 0.2459
vn -0.9907 -0.0076 0.1361
vn -0.6732 -0.0052 0.7394
vn -0.6925 0.0005 0.7215
vn -0.9834 0.0858 0.1598
vn -0.9980 0.0354 0.0525
vn -0.9627 -0.0374 0.2681
vn -0.8537 -0.1063 0.5098
vn -0.6962 -0.0131 0.7177
vn -0.4192 -0.0093 -0.9078
vn -0.9418 -0.0178 -0.3358
vn -0.1448 0.0375 -0.9887
vn -0.9380 0.0954 -0.3332
vn -0.9851 -0.0459 -0.1657
vn -0.6883 0.4024 -0.6035
vn -0.7167 -0.2292 -0.6587
vn -0.6089 0.2586 -0.7499
vn -0.0868 0.9927 -0.0834
vn -0.0752 0.9902 0.1178
vn 0.5069 0.8577 -0.0855
vn -0.2320 -0.1127 -0.9662
vn -0.9930 -0.0797 0.0874
vn -0.9389 0.0138 0.3438
vn -0.6774 -0.0116 0.7356
vn -0.8986 0.0321 0.4375
vn -0.5284 -0.1306 0.8389
vn -0.5505 -0.0397 0.8339
vn -0.1024 -0.0706 0.9922
vn -0.9966 -0.0533 0.0635
vn -0.7273 -0.0160 0.6861
vn -0.9980 0.0362 0.0528
vn -0.4831 -0.1008 0.8697
vn -0.3094 0.1323 0.9417
vn -0.4469 -0.0157 0.8944
vn 0.0058 0.9962 0.0874
vn -0.0434 0.9988 0.0247
vn 0.0825 -0.3327 0.9394
vn 0.3484 -0.4193 0.8383
vn -0.0705 -0.0022 -0.9975
vn 0.1057 -0.9140 -0.3917
vn 0.1369 -0.1736 0.9752
vn -0.0348 -0.9989 0.0310
vn -0.8129 -0.5641 -0.1445
vn -0.6774 -0.7194 -0.1537
vn 0.0380 -0.9924 -0.1173
vn 0.5704 0.0007 -0.8214
vn 0.8743 0.0054 -0.4853
vn 0.4871 -0.8688 -0.0893
vn 0.9742 0.0490 -0.2201
vn 0.4116 0.0286 -0.9109
vn 0.5719 0.0041 -0.8203
vn 0.9994 0.0190 -0.0285
vn 0.9863 -0.0125 -0.1642
vn -0.0090 0.0155 -0.9998
vn -0.0137 -0.0003 -0.9999
vn 0.8621 0.0667 -0.5023
vn -0.0172 -0.9824 -0.1860
vn 0.0182 -0.9838 0.1786
vn -0.8342 -0.2605 -0.4860
vn 0.1808 -0.1225 -0.9759
vn 0.1084 0.0219 0.9939
vn 0.0053 -0.9835 -0.1809
vn 0.0283 -0.9844 0.1738
vn 0.5596 0.0403 0.8278
vn -0.0204 -0.9955 0.0925
vn -0.1361 -0.9796 -0.1477
vn 0.8594 0.0162 0.5111
vn 0.8732 0.0236 0.4867
vn 0.9995 0.0312 -0.0039
vn 0.9982 -0.0082 0.0601
vn 0.7269 -0.0221 0.6864
vn 0.9084 0.0523 0.4147
vn 0.8959 0.0091 0.4441
vn 0.8807 -0.0034 0.4736
vn 0.1512 0.0139 0.9884
vn 0.6447 0.0212 0.7641
vn 0.9977 0.0047 0.0672
vn 0.5025 0.0416 -0.8635
vn 0.8354 -0.0214 -0.5493
vn 0.8174 0.0356 -0.5750
vn 0.9963 0.0427 0.0750
vn 0.4500 0.0330 -0.8924
vn 0.8391 -0.0021 -0.5440
vn -0.0276 -0.0938 -0.9952
vn 0.3942 0.1771 -0.9018
vn 0.9736 -0.2051 -0.1006
vn 0.8558 -0.3003 -0.4213
vn 0.3191 -0.0501 -0.9464
vn -0.0772 0.9664 0.2453
vn -0.2248 0.9193 -0.3229
vn 0.0601 0.9951 -0.0791
vn 0.6088 -0.0534 -0.7915
vn 0.0216 0.9987 -0.0467
vn 0.9977 -0.0213 -0.0636
vn 0.5915 0.0372 0.8054
vn 0.7373 0.0214 0.6753
vn 0.7418 0.0172 0.6704
vn 0.7416 0.0167 0.6707
vn 0.9959 0.0161 0.0886
vn 0.5879 0.0129 0.8088
vn 0.8371 0.0794 0.5413
vn 0.9796 0.0887 0.1806
vn 0.9982 -0.0362 0.0483
vn 0.8881 0.1434 0.4368
vn 0.8119 0.2481 0.5285
vn 0.8246 -0.2036 0.5277
vn 0.5843 0.1736 0.7928
vn 0.3868 -0.0553 0.9205
vn -0.0027 0.9959 0.0902
vn 0.9544 -0.0594 0.2926
vn 0.2053 0.9776 0.0457
vn 0.2933 -0.9548 0.0473
vn 0.6832 -0.1325 0.7181
vn -0.8792 -0.0133 -0.4763
vn -0.2322 0.0040 -0.9727
vn -0.9720 -0.0195 -0.2342
vn -0.5451 0.0879 -0.8338
vn -0.5064 -0.0224 -0.8620
vn -0.9297 -0.0419 -0.3659
vn -0.5279 -0.0081 -0.8493
vn 0.5865 -0.6122 -0.5304
vn 0.8456 -0.3408 -0.4109
vn -0.9638 0.0068 0.2665
vn -0.8538 0.0300 0.5197
vn -0.3045 0.0046 0.9525
vn -0.9656 -0.0277 0.2584
vn -0.3342 -0.0043 0.9425
vn -0.7135 0.0016 0.7007
vn -0.7746 0.1275 0.6195
vn -0.2501 0.0069 0.9682
vn -0.3255 -0.0012 0.9455
vn -0.9660 0.0182 -0.2579
vn -0.7755 0.0065 -0.6313
vn -0.4764 0.0148 -0.8791
vn -0.6592 -0.0258 -0.7516
vn -0.9832 -0.1199 -0.1373
vn -0.7143 -0.2253 -0.6626
vn -0.7002 -0.0842 -0.7090
vn -0.1402 0.1079 -0.9842
vn -0.2121 -0.0748 -0.9744
vn -0.7756 -0.0503 -0.6292
vn -0.6828 0.1526 -0.7145
vn -0.2116 -0.0749 -0.9745
vn 0.0603 0.9487 0.3104
vn -0.1169 0.7737 -0.6226
vn -0.0409 0.9990 0.0185
vn -0.7074 0.0078 0.7068
vn -0.2746 0.0029 0.9616
vn -0.9366 -0.0081 0.3504
vn -0.6755 -0.0093 0.7373
vn -0.3898 0.0351 0.9203
vn -0.8933 0.3753 0.2471
vn -0.8907 0.1792 0.4177
vn -0.9327 -0.2223 0.2839
vn -0.8774 -0.1325 0.4611
vn -0.3558 0.2698 0.8948
vn -0.8844 -0.1001 0.4558
vn -0.4988 -0.6506 0.5726
vn -0.2749 0.9613 -0.0181
vn -0.2781 0.9491 -0.1481
vn -0.9839 -0.0801 0.1597
vn 0.0549 0.9949 0.0847
vn -0.1171 -0.0683 0.9908
vn 0.0016 0.9966 0.0824
vn -0.0448 0.9989 0.0114
vn 0.0406 -0.9973 -0.0610
vn 0.0444 -0.9965 -0.0704
vn -0.0411 -0.9960 -0.0790
vn -0.0157 -0.9997 0.0182
vn -0.8104 -0.1137 0.5747
vn -0.5819 -0.3078 0.7528
vn -0.8396 -0.5302 -0.1181
vn 0.4613 0.0408 -0.8863
vn 0.4919 -0.8417 -0.2228
vn 0.8298 0.0287 -0.5574
vn 0.0997 0.0258 -0.9947
vn 0.9220 0.1040 -0.3731
vn 0.0827 0.0034 -0.9966
vn 0.9321 0.0706 -0.3554
vn 0.8584 0.0319 -0.5120
vn 0.3915 0.0007 -0.9202
vn -0.0487 -0.7295 0.6823
vn 0.0604 -0.2258 -0.9723
vn -0.5359 -0.5109 -0.6722
vn 0.6413 0.0114 0.7672
vn 0.8265 0.1190 0.5502
vn 0.9916 0.0491 0.1197
vn 0.8940 0.0152 0.4478
vn 0.2613 0.0054 0.9652
vn 0.7548 0.0430 0.6545
vn 0.9956 0.0891 -0.0284
vn 0.7484 0.0398 0.6621
vn 0.0306 0.0083 -0.9995
vn 0.3457 0.0166 -0.9382
vn 0.8976 0.0426 -0.4387
vn 0.3693 -0.0116 -0.9292
vn 0.8458 0.1088 -0.5223
vn 0.9224 0.0777 -0.3784
vn 0.0014 0.2258 -0.9742
vn 0.2842 -0.0076 -0.9587
vn 0.8989 0.3057 -0.3138
vn 0.8388 0.1404 -0.5260
vn 0.2048 0.1920 -0.9598
vn 0.3458 -0.0537 -0.9368
vn 0.7719 -0.0062 -0.6357
vn 0.9690 0.1999 -0.1456
vn 0.0605 0.9638 -0.2596
vn 0.9307 -0.0731 -0.3585
vn 0.7772 -0.0149 -0.6291
vn 0.5883 0.0359 0.8079
vn 0.7540 -0.0047 0.6568
vn 0.1733 0.0084 0.9848
vn 0.4013 0.0735 0.9130
vn 0.8949 0.0279 0.4454
vn 0.2632 0.2935 0.9190
vn 0.2001 -0.2937 0.9347
vn 0.3920 -0.0314 0.9194
vn 0.4011 0.1410 0.9051
vn 0.5391 -0.0552 0.8404
vn 0.5390 -0.0875 0.8377
vn 0.9561 -0.0416 0.2900
vn 0.1283 0.2695 0.9544
vn 0.5379 0.1224 0.8340
vn 0.9952 0.0541 0.0812
vn 0.8549 0.0028 0.5187
vn 0.8486 0.0208 0.5286
vn 0.1879 0.9796 0.0717
vn 0.2020 0.9789 0.0308
vt 0.420403 0.087122
vt 0.443138 0.012114
vt 0.520012 0.096048
vt 0.473932 0.103776
vt 0.202121 0.140345
vt 0.067076 0.739882
vt 0.160601 0.265903
vt 0.154234 0.774470
vt 0.167944 0.711322
vt 0.162351 0.773970
vt 0.228718 0.102726
vt 0.095256 0.887156
vt 0.245679 0.107563
vt 0.417120 0.165536
vt 0.503955 0.163644
vt 0.476743 0.248563
vt 0.296017 0.225990
vt 0.222128 0.144421
vt 0.371893 0.320684
vt 0.253335 0.323980
vt 0.689284 0.108087
vt 0.489918 0.246595
vt 0.184870 0.706378
vt 0.179682 0.687480
vt 0.213932 0.713412
vt 0.631013 0.137090
vt 0.643649 0.200539
vt 0.550408 0.242500
vt 0.688604 0.218147
vt 0.587869 0.277314
vt 0.623614 0.334214
vt 0.687528 0.302180
vt 0.245971 0.368275
vt 0.243723 0.488767
vt 0.493657 0.468600
vt 0.295234 0.461640
vt 0.498881 0.396888
vt 0.238644 0.461912
vt 0.414056 0.486717
vt 0.382955 0.518740
vt 0.519183 0.534452
vt 0.266024 0.484785
vt 0.120259 0.852791
vt 0.188575 0.707586
vt 0.144734 0.795697
vt 0.470795 0.623694
vt 0.114204 0.855402
vt 0.164673 0.818997
vt 0.155331 0.897846
vt 0.647263 0.402742
vt 0.688161 0.385049
vt 0.681576 0.468279
vt 0.676715 0.539430
vt 0.666843 0.490973
vt 0.666197 0.498317
vt 0.621438 0.465817
vt 0.603079 0.585076
vt 0.596222 0.518949
vt 0.662194 0.618503
vt 0.074921 0.845847
vt 0.201639 0.786433
vt 0.175549 0.788001
vt 0.243694 0.755689
vt 0.161774 0.767967
vt 0.168389 0.789608
vt 0.099270 0.742656
vt 0.059649 0.979629
vt 0.179026 0.017641
vt 0.127694 0.233618
vt 0.228934 0.674119
vt 0.147922 0.760384
vt 0.154799 0.677632
vt 0.225031 0.651367
vt 0.141894 0.664113
vt 0.102811 0.107375
vt 0.172435 0.127006
vt 0.095114 0.086747
vt 0.234516 0.068519
vt 0.323332 0.128916
vt 0.277768 0.125368
vt 0.193087 0.262382
vt 0.098339 0.240488
vt 0.375928 0.204038
vt 0.373601 0.166769
vt 0.255667 0.233176
vt 0.244391 0.268023
vt 0.090734 0.313493
vt 0.213755 0.663582
vt 0.502617 0.163614
vt 0.645739 0.014382
vt 0.531407 0.145032
vt 0.279076 0.488109
vt 0.496596 0.093060
vt 0.357785 0.105356
vt 0.437979 0.186477
vt 0.389056 0.277595
vt 0.454163 0.238730
vt 0.560464 0.299522
vt 0.267241 0.331317
vt 0.064808 0.377997
vt 0.396387 0.350613
vt 0.194017 0.411382
vt 0.069011 0.416811
vt 0.060303 0.467683
vt 0.168560 0.488630
vt 0.248448 0.603933
vt 0.284478 0.518129
vt 0.403239 0.492867
vt 0.053303 0.502325
vt 0.041725 0.522448
vt 0.042360 0.599153
vt 0.121311 0.985788
vt 0.080414 0.606623
vt 0.406259 0.605546
vt 0.605908 0.401835
vt 0.470231 0.361106
vt 0.491809 0.400501
vt 0.475513 0.381359
vt 0.474673 0.465631
vt 0.341024 0.467624
vt 0.611212 0.486768
vt 0.441791 0.522713
vt 0.187141 0.813535
vt 0.524534 0.621177
vt 0.516434 0.580855
vt 0.099330 0.939448
vt 0.276028 0.510626
vt 0.381992 0.716680
s 0
usemtl material_0.010
f 3/1/1 1/2/1 2/3/1
f 5/4/2 1/2/2 4/5/2
f 4/5/3 1/2/3 3/1/3
f 8/6/4 4/5/4 6/7/4
f 9/8/5 4/5/5 8/6/5
f 11/9/6 9/8/6 10/10/6
f 6/7/7 4/5/7 7/11/7
f 9/8/8 8/6/8 12/12/8
f 16/13/9 3/1/9 14/14/9
f 14/14/10 3/1/10 15/15/10
f 16/13/11 7/11/11 4/5/11
f 18/16/12 17/17/12 14/14/12
f 17/17/13 16/13/13 14/14/13
f 13/18/14 16/13/14 17/17/14
f 20/19/15 21/20/15 17/17/15
f 2/3/16 1/2/16 5/4/16
f 22/21/17 5/4/17 25/22/17
f 5/4/18 9/8/18 23/23/18
f 5/4/19 23/23/19 24/24/19
f 5/4/20 24/24/20 25/22/20
f 11/9/21 23/23/21 9/8/21
f 69/25/22 11/9/22 10/10/22
f 15/15/23 3/1/23 2/3/23
f 2/3/24 22/21/24 27/26/24
f 29/27/25 15/15/25 27/26/25
f 18/16/26 15/15/26 28/28/26
f 27/26/27 22/21/27 30/29/27
f 30/29/28 29/27/28 27/26/28
f 18/16/29 28/28/29 31/30/29
f 32/31/30 20/19/30 18/16/30
f 32/31/31 18/16/31 31/30/31
f 28/28/32 30/29/32 31/30/32
f 31/30/33 30/29/33 33/32/33
f 37/33/34 21/20/34 36/34/34
f 38/35/35 35/36/35 34/37/35
f 99/38/36 37/33/36 36/34/36
f 35/36/37 38/35/37 43/39/37
f 39/40/38 43/39/38 40/41/38
f 42/42/39 35/36/39 43/39/39
f 39/40/40 42/42/40 43/39/40
f 36/34/41 35/36/41 42/42/41
f 47/43/42 45/44/42 41/45/42
f 59/46/43 47/43/43 41/45/43
f 47/43/44 48/47/44 45/44/44
f 50/48/45 113/49/45 47/43/45
f 34/37/46 20/19/46 32/31/46
f 51/50/47 34/37/47 32/31/47
f 51/50/48 32/31/48 52/51/48
f 54/52/49 38/35/49 51/50/49
f 56/53/50 55/54/50 57/55/50
f 57/55/51 55/54/51 53/56/51
f 58/57/52 57/55/52 124/58/52
f 59/46/53 41/45/53 40/41/53
f 63/59/54 59/46/54 56/53/54
f 47/43/55 61/60/55 62/61/55
f 63/59/56 56/53/56 57/55/56
f 65/62/57 62/61/57 61/60/57
f 64/63/58 62/61/58 65/62/58
f 63/59/59 65/62/59 61/60/59
f 62/61/60 116/64/60 49/65/60
f 8/6/61 67/66/61 12/12/61
f 10/10/62 12/12/62 71/67/62
f 13/18/63 68/68/63 6/7/63
f 68/68/64 70/69/64 6/7/64
f 12/12/65 67/66/65 71/67/65
f 72/70/66 10/10/66 73/71/66
f 73/71/67 89/72/67 87/73/67
f 72/70/68 73/71/68 87/73/68
f 67/66/69 70/69/69 74/74/69
f 75/75/70 68/68/70 80/76/70
f 75/75/71 78/77/71 70/69/71
f 76/78/72 77/79/72 74/74/72
f 79/80/73 76/78/73 78/77/73
f 81/81/74 82/82/74 80/76/74
f 82/82/75 75/75/75 80/76/75
f 83/83/76 94/84/76 79/80/76
f 83/83/77 75/75/77 84/85/77
f 81/81/78 13/18/78 19/86/78
f 37/33/79 81/81/79 19/86/79
f 100/87/80 84/85/80 82/82/80
f 25/22/81 24/24/81 86/88/81
f 25/22/82 86/88/82 85/89/82
f 72/70/83 87/73/83 86/88/83
f 69/25/84 86/88/84 24/24/84
f 26/90/85 85/89/85 88/91/85
f 90/92/86 86/88/86 89/72/86
f 85/89/87 86/88/87 90/92/87
f 91/93/88 85/89/88 90/92/88
f 77/79/89 89/72/89 74/74/89
f 90/92/90 89/72/90 77/79/90
f 91/93/91 90/92/91 77/79/91
f 91/93/92 77/79/92 93/94/92
f 79/80/93 77/79/93 76/78/93
f 93/94/94 79/80/94 94/84/94
f 88/91/95 93/94/95 92/95/95
f 92/95/96 93/94/96 94/84/96
f 83/83/97 92/95/97 94/84/97
f 96/96/98 95/97/98 83/83/98
f 26/90/99 88/91/99 98/98/99
f 98/98/100 88/91/100 92/95/100
f 96/96/101 84/85/101 102/99/101
f 101/100/102 100/87/102 99/38/102
f 101/100/103 102/99/103 100/87/103
f 102/99/104 84/85/104 100/87/104
f 122/101/105 102/99/105 103/102/105
f 105/103/106 99/38/106 104/104/106
f 104/104/107 103/102/107 105/103/107
f 107/105/108 42/42/108 46/106/108
f 104/104/109 99/38/109 107/105/109
f 111/107/110 110/108/110 104/104/110
f 111/107/111 108/109/111 109/110/111
f 114/111/112 107/105/112 46/106/112
f 114/111/113 46/106/113 48/47/113
f 113/49/114 114/111/114 48/47/114
f 116/64/115 115/112/115 50/48/115
f 114/111/116 109/110/116 108/109/116
f 118/113/117 114/111/117 113/49/117
f 112/114/118 111/107/118 118/113/118
f 97/115/119 119/116/119 120/117/119
f 98/98/120 96/96/120 122/101/120
f 119/116/121 98/98/121 122/101/121
f 121/118/122 119/116/122 122/101/122
f 122/101/123 96/96/123 102/99/123
f 123/119/124 97/115/124 120/117/124
f 120/117/125 121/118/125 106/120/125
f 103/102/126 121/118/126 122/101/126
f 121/118/127 103/102/127 106/120/127
f 110/108/128 123/119/128 106/120/128
f 126/121/129 123/119/129 110/108/129
f 127/122/130 126/121/130 110/108/130
f 64/63/131 128/123/131 116/64/131
f 66/124/132 58/57/132 125/125/132
f 66/124/133 128/123/133 65/62/133
f 112/114/134 127/122/134 111/107/134
f 112/114/135 117/126/135 128/123/135
f 9/8/136 5/4/136 4/5/136
f 12/12/137 10/10/137 9/8/137
f 16/13/138 4/5/138 3/1/138
f 7/11/139 13/18/139 6/7/139
f 18/16/140 14/14/140 15/15/140
f 13/18/141 7/11/141 16/13/141
f 19/86/142 13/18/142 17/17/142
f 18/16/143 20/19/143 17/17/143
f 21/20/144 19/86/144 17/17/144
f 23/23/145 11/9/145 24/24/145
f 11/9/146 69/25/146 24/24/146
f 15/15/147 2/3/147 27/26/147
f 2/3/148 5/4/148 22/21/148
f 22/21/149 25/22/149 26/90/149
f 29/27/150 28/28/150 15/15/150
f 26/90/151 30/29/151 22/21/151
f 33/32/152 32/31/152 31/30/152
f 30/29/153 28/28/153 29/27/153
f 33/32/154 30/29/154 26/90/154
f 52/51/155 33/32/155 26/90/155
f 34/37/156 35/36/156 20/19/156
f 36/34/157 21/20/157 20/19/157
f 37/33/158 19/86/158 21/20/158
f 36/34/159 20/19/159 35/36/159
f 41/45/160 39/40/160 40/41/160
f 39/40/161 44/127/161 42/42/161
f 39/40/162 45/44/162 44/127/162
f 42/42/163 99/38/163 36/34/163
f 44/127/164 46/106/164 42/42/164
f 41/45/165 45/44/165 39/40/165
f 50/48/166 47/43/166 49/65/166
f 45/44/167 46/106/167 44/127/167
f 48/47/168 46/106/168 45/44/168
f 47/43/169 113/49/169 48/47/169
f 49/65/170 116/64/170 50/48/170
f 52/51/171 32/31/171 33/32/171
f 53/56/172 52/51/172 26/90/172
f 51/50/173 38/35/173 34/37/173
f 52/51/174 54/52/174 51/50/174
f 53/56/175 54/52/175 52/51/175
f 55/54/176 43/39/176 38/35/176
f 54/52/177 55/54/177 38/35/177
f 40/41/178 43/39/178 55/54/178
f 56/53/179 40/41/179 55/54/179
f 53/56/180 55/54/180 54/52/180
f 59/46/181 40/41/181 56/53/181
f 63/59/182 60/128/182 59/46/182
f 59/46/183 61/60/183 47/43/183
f 60/128/184 61/60/184 59/46/184
f 62/61/185 49/65/185 47/43/185
f 63/59/186 61/60/186 60/128/186
f 63/59/187 57/55/187 58/57/187
f 63/59/188 66/124/188 65/62/188
f 64/63/189 116/64/189 62/61/189
f 67/66/190 8/6/190 6/7/190
f 67/66/191 6/7/191 70/69/191
f 73/71/192 10/10/192 71/67/192
f 72/70/193 69/25/193 10/10/193
f 73/71/194 71/67/194 67/66/194
f 73/71/195 67/66/195 74/74/195
f 89/72/196 73/71/196 74/74/196
f 75/75/197 70/69/197 68/68/197
f 70/69/198 76/78/198 74/74/198
f 70/69/199 78/77/199 76/78/199
f 80/76/200 68/68/200 13/18/200
f 75/75/201 79/80/201 78/77/201
f 81/81/202 80/76/202 13/18/202
f 83/83/203 79/80/203 75/75/203
f 82/82/204 84/85/204 75/75/204
f 100/87/205 82/82/205 81/81/205
f 26/90/206 25/22/206 85/89/206
f 69/25/207 72/70/207 86/88/207
f 89/72/208 86/88/208 87/73/208
f 88/91/209 85/89/209 91/93/209
f 91/93/210 93/94/210 88/91/210
f 79/80/211 93/94/211 77/79/211
f 95/97/212 92/95/212 83/83/212
f 97/115/213 26/90/213 98/98/213
f 95/97/214 98/98/214 92/95/214
f 96/96/215 83/83/215 84/85/215
f 96/96/216 98/98/216 95/97/216
f 37/33/217 99/38/217 81/81/217
f 99/38/218 100/87/218 81/81/218
f 103/102/219 102/99/219 101/100/219
f 105/103/220 101/100/220 99/38/220
f 105/103/221 103/102/221 101/100/221
f 104/104/222 106/120/222 103/102/222
f 42/42/223 107/105/223 99/38/223
f 108/109/224 104/104/224 107/105/224
f 104/104/225 110/108/225 106/120/225
f 108/109/226 111/107/226 104/104/226
f 50/48/227 115/112/227 113/49/227
f 114/111/228 108/109/228 107/105/228
f 115/112/229 117/126/229 113/49/229
f 115/112/230 116/64/230 117/126/230
f 113/49/231 117/126/231 118/113/231
f 118/113/232 111/107/232 109/110/232
f 114/111/233 118/113/233 109/110/233
f 119/116/234 97/115/234 98/98/234
f 121/118/235 120/117/235 119/116/235
f 97/115/236 53/56/236 26/90/236
f 123/119/237 53/56/237 97/115/237
f 123/119/238 120/117/238 106/120/238
f 126/121/239 57/55/239 53/56/239
f 126/121/240 124/58/240 57/55/240
f 58/57/241 124/58/241 125/125/241
f 126/121/242 53/56/242 123/119/242
f 127/122/243 124/58/243 126/121/243
f 125/125/244 124/58/244 127/122/244
f 127/122/245 110/108/245 111/107/245
f 66/124/246 63/59/246 58/57/246
f 64/63/247 65/62/247 128/123/247
f 116/64/248 128/123/248 117/126/248
f 112/114/249 125/125/249 127/122/249
f 112/114/250 66/124/250 125/125/250
f 112/114/251 118/113/251 117/126/251
f 66/124/252 112/114/252 128/123/252
