# Blender 4.2.1 LTS
# www.blender.org
mtllib collision.mtl
o textured_simple
v -0.046828 -0.019281 -0.049431
v -0.041729 -0.024852 -0.049275
v -0.042907 -0.014184 -0.047648
v -0.041544 -0.025234 -0.011869
v -0.025111 -0.022254 -0.047609
v -0.048548 -0.016982 0.025099
v -0.049483 -0.012889 -0.047925
v -0.049922 0.001377 -0.048277
v -0.033261 -0.027648 -0.013197
v -0.033855 -0.027773 -0.048445
v -0.012965 -0.024815 -0.049649
v 0.000510 -0.000442 -0.046088
v 0.000315 -0.024959 -0.048767
v -0.051780 -0.005410 0.033109
v -0.044286 -0.023513 0.025980
v -0.051946 -0.016997 0.032974
v -0.045478 -0.026713 0.031946
v -0.036964 -0.030171 0.032595
v -0.040604 -0.027146 0.030309
v -0.050891 0.006713 -0.015132
v -0.049833 -0.014001 0.030011
v -0.050617 0.007160 0.026133
v -0.033814 -0.027928 0.025214
v -0.012633 -0.026416 0.029393
v -0.005549 -0.028893 0.032740
v -0.011909 -0.026717 0.026150
v -0.016549 0.001234 0.028470
v -0.048119 0.015630 -0.046532
v -0.044553 0.019461 -0.019442
v -0.036728 0.023069 -0.047752
v -0.047696 0.016012 0.026266
v -0.038126 0.022870 0.026056
v -0.025911 0.022615 -0.049443
v -0.015245 0.023934 -0.043040
v 0.007025 0.025374 -0.044318
v 0.028564 0.026591 -0.016641
v -0.053456 0.008241 0.031705
v -0.050779 0.017760 0.032270
v -0.050389 0.013142 0.030359
v -0.041933 0.025257 0.032213
v -0.040440 0.022773 0.030272
v -0.016494 0.024344 0.026451
v -0.004909 0.027341 0.032483
v 0.001619 0.025475 0.029598
v 0.007447 -0.024602 -0.039903
v 0.028954 -0.020066 -0.047944
v 0.032806 -0.023432 -0.007114
v 0.032666 -0.023492 -0.047807
v 0.042200 -0.018584 -0.001974
v 0.043880 -0.014312 -0.047697
v 0.045033 -0.000101 -0.049239
v 0.045958 -0.008702 -0.046626
v 0.044653 0.012381 -0.007848
v 0.046015 -0.009126 0.025807
v 0.006939 -0.015982 0.029222
v 0.028537 -0.027634 0.031751
v 0.006630 -0.004643 0.030182
v 0.019391 0.009660 0.028716
v 0.032832 -0.024417 0.025965
v 0.019901 -0.016599 0.029587
v 0.021453 -0.024974 0.029235
v 0.033897 -0.019960 0.030881
v 0.028732 -0.007003 0.029226
v 0.033960 -0.008020 0.028939
v 0.040514 -0.019952 0.031008
v 0.041809 -0.023898 0.031783
v 0.046084 -0.017454 0.030952
v 0.041557 -0.019813 0.026058
v 0.039083 -0.004813 0.031854
v 0.048428 -0.007512 0.032854
v 0.047250 0.011273 0.031278
v 0.044792 0.011232 0.025220
v 0.025512 0.021955 -0.047607
v 0.006710 0.024215 -0.049642
v 0.026976 0.027210 -0.048268
v 0.008904 0.025185 0.012663
v 0.038341 0.023100 -0.049500
v 0.037394 0.023866 -0.014895
v 0.043412 0.014815 -0.049495
v 0.011959 0.002678 0.028400
v 0.031800 0.029267 0.032357
v 0.033811 0.026738 0.030161
v 0.026303 0.015969 0.030696
v 0.038064 0.010699 0.029586
v 0.042121 0.018605 0.026073
v 0.044585 0.021649 0.031455
v 0.032118 0.026572 0.026394
vn -0.7376 -0.6752 -0.0033
vn 0.2156 0.1705 -0.9615
vn 0.0739 0.1584 -0.9846
vn -0.7564 -0.6541 0.0027
vn -0.9992 -0.0313 -0.0242
vn -0.0120 -0.3030 -0.9529
vn 0.0446 -0.6303 -0.7751
vn 0.0220 0.0438 -0.9988
vn -0.0271 0.5410 -0.8406
vn 0.0665 -0.9977 -0.0125
vn -0.3190 -0.8604 -0.3975
vn 0.2654 0.7640 0.5881
vn -0.9964 -0.0850 0.0080
vn -0.8940 -0.0576 -0.4444
vn 0.0100 0.6107 0.7918
vn 0.0315 0.0448 0.9985
vn 0.0388 -0.0092 -0.9992
vn 0.0011 -0.0689 -0.9976
vn 0.0076 0.9768 -0.2139
vn -0.0407 0.9992 0.0019
vn -0.0694 0.9936 -0.0892
vn -0.0439 0.9989 0.0185
vn -0.3724 0.0496 0.9268
vn 0.8601 0.0111 0.5100
vn -0.8193 0.2778 -0.5016
vn 0.0207 -0.0124 0.9997
vn -0.5820 0.8129 0.0213
vn 0.3333 -0.3363 0.8808
vn -0.5672 0.6656 -0.4850
vn -0.0555 0.9190 -0.3904
vn -0.0496 0.9292 -0.3663
vn -0.0667 0.9958 -0.0621
vn 0.0403 -0.7949 0.6054
vn 0.0818 -0.9963 -0.0258
vn 0.0402 0.0035 -0.9992
vn 0.0452 -0.9990 0.0038
vn 0.0444 -0.9990 0.0013
vn -0.0127 0.0758 -0.9970
vn 0.6330 -0.7726 -0.0489
vn 0.4704 -0.8820 -0.0279
vn 0.9376 -0.3477 0.0020
vn 0.9980 0.0625 -0.0004
vn 0.0251 -0.9418 -0.3352
vn -0.0297 0.7723 0.6345
vn 0.3976 -0.0667 0.9151
vn -0.0304 -0.0477 0.9984
vn -0.0040 0.6817 0.7316
vn -0.1341 0.4689 0.8730
vn -0.0180 0.0541 0.9984
vn -0.0678 0.0997 0.9927
vn 0.0851 0.1596 0.9835
vn -0.0181 -0.2710 0.9624
vn -0.0668 0.1711 0.9830
vn -0.0192 0.1606 0.9868
vn 0.9229 -0.3849 0.0043
vn 0.9433 0.0315 -0.3304
vn 0.9256 0.0447 -0.3758
vn 0.0224 -0.5596 -0.8285
vn -0.1296 0.9704 -0.2036
vn 0.0158 0.3268 -0.9450
vn 0.2941 0.9558 0.0039
vn -0.4330 -0.0624 -0.8992
vn -0.1380 -0.0850 -0.9868
vn 0.8896 0.4564 -0.0173
vn 0.0050 -0.0502 0.9987
vn 0.0361 -0.6386 0.7687
vn 0.0048 -0.0503 0.9987
vn -0.0146 -0.0721 0.9973
vn -0.0299 -0.2694 0.9626
vn -0.0491 0.9092 -0.4135
vn 0.9405 0.3398 0.0079
vn -0.1810 -0.0038 0.9835
vn 0.8996 0.2373 -0.3666
vn 0.4625 0.8170 -0.3445
vn -0.4191 -0.7619 0.4938
vn -0.3471 -0.9378 -0.0079
vn -0.2786 -0.9604 0.0081
vn -0.2814 -0.9595 -0.0111
vn -0.5600 -0.0376 -0.8277
vn 0.3032 0.0984 -0.9478
vn -0.9242 -0.3817 -0.0096
vn -0.0113 0.5898 -0.8075
vn 0.0761 -0.9971 0.0023
vn -0.0094 0.0806 -0.9967
vn -0.9156 -0.0746 -0.3952
vn -0.6409 0.0003 0.7676
vn -0.8347 -0.5495 -0.0355
vn -0.3876 -0.9217 0.0138
vn -0.7786 -0.4749 -0.4103
vn 0.3255 0.1174 0.9382
vn 0.5226 0.3842 0.7611
vn -0.3680 -0.7868 -0.4956
vn -0.7686 -0.5465 -0.3326
vn 0.8227 -0.0184 0.5682
vn -0.9963 -0.0857 0.0076
vn 0.0645 -0.9622 -0.2647
vn 0.0397 -0.9368 -0.3476
vn 0.0291 0.0375 0.9989
vn 0.0555 -0.9984 -0.0065
vn -0.0342 0.7674 0.6402
vn -0.9901 0.1314 -0.0501
vn -0.1977 0.1437 -0.9697
vn 0.0609 -0.0129 -0.9981
vn -0.9509 0.3094 0.0039
vn -0.7345 0.6787 0.0007
vn -0.5496 0.8342 -0.0456
vn -0.4360 0.8999 -0.0058
vn -0.0180 -0.9885 0.1500
vn -0.0492 0.9765 -0.2097
vn -0.0582 0.9983 -0.0039
vn -0.8377 0.2639 -0.4781
vn -0.9497 0.3133 0.0029
vn 0.9615 -0.0316 0.2730
vn 0.3665 -0.4263 0.8270
vn -0.4902 0.6668 -0.5614
vn 0.0560 -0.0214 0.9982
vn 0.0511 -0.5959 0.8015
vn 0.0199 -0.0614 0.9979
vn 0.0496 -0.5463 -0.8361
vn 0.0634 -0.9979 -0.0134
vn 0.4587 -0.8886 -0.0003
vn 0.0226 -0.0156 -0.9996
vn 0.7127 -0.1326 -0.6888
vn 0.9303 -0.3668 -0.0029
vn 0.0043 0.0083 1.0000
vn -0.0084 0.0322 0.9994
vn -0.0952 -0.0866 0.9917
vn -0.0100 0.2434 0.9699
vn -0.0257 0.0509 0.9984
vn 0.0512 -0.9982 -0.0298
vn 0.0437 -0.8866 -0.4605
vn -0.1065 -0.0615 0.9924
vn -0.0466 0.0045 0.9989
vn -0.1306 0.1496 0.9801
vn 0.2577 -0.9130 -0.3163
vn 0.4668 -0.8840 -0.0267
vn 0.3959 -0.7392 -0.5449
vn 0.7317 -0.5392 -0.4170
vn -0.0738 -0.6038 0.7937
vn -0.4484 -0.0921 0.8891
vn 0.0337 -0.0526 0.9980
vn -0.6776 0.0191 0.7352
vn 0.7668 -0.3327 -0.5490
vn 0.9437 -0.1680 -0.2848
vn -0.0433 -0.0194 -0.9989
vn -0.0244 -0.7735 -0.6334
vn -0.0869 0.9959 0.0239
vn 0.3389 0.9407 -0.0115
vn -0.0642 0.9979 0.0061
vn -0.1296 -0.0632 -0.9896
vn 0.9939 0.1076 -0.0233
vn 0.9947 0.1006 -0.0212
vn 0.8529 0.5220 0.0051
vn 0.7256 0.6881 0.0046
vn 0.0219 -0.8162 0.5774
vn -0.0458 0.9987 -0.0235
vn -0.0468 0.0044 0.9989
vn -0.0630 0.9980 0.0056
vn 0.2991 0.9539 -0.0243
vn -0.0429 0.9251 -0.3773
vn -0.6013 0.4520 0.6589
vn 0.9982 0.0599 -0.0021
vn -0.2684 0.1221 0.9555
vn 0.4021 0.1583 0.9018
vn 0.7669 0.3407 -0.5438
vn 0.6233 0.7814 0.0284
vn 0.0885 -0.0123 0.9960
vn -0.1756 -0.0818 0.9810
vn 0.4922 0.6417 -0.5882
vn -0.1441 -0.0538 0.9881
vt 0.185351 0.367335
vt 0.135307 0.393939
vt 0.317027 0.336889
vt 0.090157 0.476921
vt 0.048689 0.506732
vt 0.452156 0.382254
vt 0.181272 0.443694
vt 0.189801 0.396098
vt 0.307789 0.452061
vt 0.164582 0.257474
vt 0.186042 0.306213
vt 0.181210 0.183571
vt 0.091112 0.668813
vt 0.129195 0.243473
vt 0.456253 0.211950
vt 0.306624 0.289705
vt 0.211463 0.152927
vt 0.479006 0.300304
vt 0.483675 0.332530
vt 0.452766 0.293943
vt 0.505740 0.313974
vt 0.465442 0.457973
vt 0.487573 0.457792
vt 0.547492 0.321603
vt 0.616371 0.474809
vt 0.200667 0.537998
vt 0.167123 0.763819
vt 0.213315 0.621605
vt 0.189995 0.583333
vt 0.462113 0.539138
vt 0.200606 0.700412
vt 0.401596 0.706785
vt 0.302780 0.774781
vt 0.497029 0.493170
vt 0.559553 0.451309
vt 0.537829 0.501376
vt 0.466212 0.496825
vt 0.509385 0.539256
vt 0.296080 0.512079
vt 0.490388 0.532957
vt 0.463005 0.616446
vt 0.488496 0.664701
vt 0.508017 0.689555
vt 0.180550 0.132171
vt 0.323707 0.061856
vt 0.186202 0.961022
vt 0.358252 0.729728
vt 0.458844 0.435008
vt 0.196046 0.945040
vt 0.467704 0.934026
vt 0.328652 0.868158
vt 0.478911 0.190006
vt 0.469204 0.065569
vt 0.508516 0.162283
vt 0.627098 0.730523
vt 0.645381 0.755494
vt 0.607002 0.765953
vt 0.611102 0.909739
vt 0.471779 0.160640
vt 0.573414 0.885110
vt 0.568631 0.937263
vt 0.556807 0.903106
vt 0.540091 0.951104
vt 0.514961 0.946392
vt 0.493745 0.918504
vt 0.482872 0.858439
vt 0.450207 0.865741
vt 0.187110 0.702936
vt 0.191382 0.775363
vt 0.181156 0.815837
vt 0.305869 0.813668
vt 0.183332 0.912801
vt 0.185299 0.861137
vt 0.450406 0.834559
vt 0.595623 0.624669
vt 0.492488 0.794483
vt 0.477026 0.787020
vt 0.569002 0.770870
vt 0.542927 0.792619
vt 0.524083 0.839028
vt 0.451363 0.789685
vt 0.470809 0.829615
vt 0.565817 0.422265
vt 0.459753 0.335596
vt 0.196278 0.494255
vt 0.443976 0.045388
vt 0.532806 0.893937
s 0
usemtl material_0.020
f 1/1/1 2/2/1 4/3/1
f 2/2/2 1/1/2 3/4/2
f 5/5/3 2/2/3 3/4/3
f 1/1/4 4/3/4 6/6/4
f 8/7/5 7/8/5 20/9/5
f 2/2/6 11/10/6 10/11/6
f 10/11/7 11/10/7 13/12/7
f 12/13/8 5/5/8 3/4/8
f 46/14/9 11/10/9 5/5/9
f 26/15/10 9/16/10 45/17/10
f 18/18/11 17/19/11 23/20/11
f 18/18/12 19/21/12 17/19/12
f 20/9/13 7/8/13 6/6/13
f 22/22/14 6/6/14 37/23/14
f 19/21/15 18/18/15 24/24/15
f 21/25/16 19/21/16 24/24/16
f 30/26/17 12/13/17 3/4/17
f 73/27/18 12/13/18 30/26/18
f 34/28/19 33/29/19 30/26/19
f 32/30/20 34/28/20 30/26/20
f 35/31/21 33/29/21 34/28/21
f 76/32/22 36/33/22 32/30/22
f 38/34/23 37/23/23 14/35/23
f 14/35/24 21/25/24 39/36/24
f 31/37/25 22/22/25 38/34/25
f 41/38/26 39/36/26 21/25/26
f 32/30/27 29/39/27 31/37/27
f 38/34/28 39/36/28 41/38/28
f 40/40/29 31/37/29 38/34/29
f 42/41/30 32/30/30 40/40/30
f 43/42/31 42/41/31 40/40/31
f 42/41/32 76/32/32 32/30/32
f 43/42/33 40/40/33 44/43/33
f 10/11/34 13/12/34 45/17/34
f 46/14/35 48/44/35 11/10/35
f 45/17/36 13/12/36 48/44/36
f 45/17/37 48/44/37 47/45/37
f 50/46/38 46/14/38 12/13/38
f 49/47/39 48/44/39 50/46/39
f 47/45/40 49/47/40 68/48/40
f 52/49/41 49/47/41 50/46/41
f 54/50/42 52/49/42 53/51/42
f 25/52/43 26/15/43 56/53/43
f 24/24/44 25/52/44 61/54/44
f 57/55/45 55/56/45 80/57/45
f 55/56/46 61/54/46 60/58/46
f 56/53/47 61/54/47 25/52/47
f 66/59/48 61/54/48 56/53/48
f 80/57/49 60/58/49 63/60/49
f 60/58/50 62/61/50 63/60/50
f 63/60/51 62/61/51 64/62/51
f 62/61/52 61/54/52 65/63/52
f 65/63/53 66/59/53 67/64/53
f 62/61/54 65/63/54 64/62/54
f 54/50/55 68/48/55 49/47/55
f 70/65/56 54/50/56 71/66/56
f 71/66/57 54/50/57 72/67/57
f 73/27/58 33/29/58 74/68/58
f 35/31/59 75/69/59 74/68/59
f 75/69/60 77/70/60 74/68/60
f 36/33/61 78/71/61 75/69/61
f 51/72/62 50/46/62 79/73/62
f 79/73/63 73/27/63 77/70/63
f 85/74/64 53/51/64 77/70/64
f 44/43/65 27/75/65 80/57/65
f 43/42/66 82/76/66 81/77/66
f 44/43/67 80/57/67 58/78/67
f 44/43/68 58/78/68 82/76/68
f 83/79/69 58/78/69 84/80/69
f 87/81/70 43/42/70 81/77/70
f 85/74/71 72/67/71 53/51/71
f 84/80/72 67/64/72 71/66/72
f 86/82/73 71/66/73 72/67/73
f 81/77/74 86/82/74 87/81/74
f 81/77/75 82/76/75 86/82/75
f 4/3/76 2/2/76 10/11/76
f 4/3/77 10/11/77 9/16/77
f 23/20/78 4/3/78 9/16/78
f 8/7/79 1/1/79 7/8/79
f 3/4/80 1/1/80 8/7/80
f 7/8/81 1/1/81 6/6/81
f 2/2/82 5/5/82 11/10/82
f 45/17/83 9/16/83 10/11/83
f 5/5/84 12/13/84 46/14/84
f 37/23/85 6/6/85 16/83/85
f 37/23/86 16/83/86 14/35/86
f 15/84/87 6/6/87 4/3/87
f 15/84/88 4/3/88 23/20/88
f 15/84/89 17/19/89 16/83/89
f 16/83/90 17/19/90 19/21/90
f 16/83/91 19/21/91 21/25/91
f 15/84/92 23/20/92 17/19/92
f 6/6/93 15/84/93 16/83/93
f 21/25/94 14/35/94 16/83/94
f 6/6/95 22/22/95 20/9/95
f 26/15/96 18/18/96 23/20/96
f 25/52/97 18/18/97 26/15/97
f 27/75/98 21/25/98 24/24/98
f 23/20/99 9/16/99 26/15/99
f 18/18/100 25/52/100 24/24/100
f 20/9/101 28/85/101 8/7/101
f 28/85/102 30/26/102 8/7/102
f 8/7/103 30/26/103 3/4/103
f 31/37/104 28/85/104 20/9/104
f 29/39/105 28/85/105 31/37/105
f 29/39/106 30/26/106 28/85/106
f 29/39/107 32/30/107 30/26/107
f 33/29/108 73/27/108 30/26/108
f 33/29/109 35/31/109 74/68/109
f 32/30/110 36/33/110 34/28/110
f 38/34/111 22/22/111 37/23/111
f 31/37/112 20/9/112 22/22/112
f 38/34/113 14/35/113 39/36/113
f 41/38/114 40/40/114 38/34/114
f 32/30/115 31/37/115 40/40/115
f 41/38/116 21/25/116 27/75/116
f 44/43/117 40/40/117 41/38/117
f 44/43/118 41/38/118 27/75/118
f 11/10/119 48/44/119 13/12/119
f 47/45/120 26/15/120 45/17/120
f 49/47/121 47/45/121 48/44/121
f 50/46/122 48/44/122 46/14/122
f 51/72/123 52/49/123 50/46/123
f 52/49/124 54/50/124 49/47/124
f 61/54/125 55/56/125 24/24/125
f 55/56/126 27/75/126 24/24/126
f 27/75/127 55/56/127 57/55/127
f 57/55/128 80/57/128 27/75/128
f 80/57/129 55/56/129 60/58/129
f 47/45/130 59/86/130 26/15/130
f 56/53/131 26/15/131 59/86/131
f 62/61/132 60/58/132 61/54/132
f 63/60/133 58/78/133 80/57/133
f 66/59/134 65/63/134 61/54/134
f 56/53/135 59/86/135 66/59/135
f 59/86/136 47/45/136 68/48/136
f 59/86/137 68/48/137 66/59/137
f 67/64/138 66/59/138 68/48/138
f 69/87/139 63/60/139 64/62/139
f 65/63/140 69/87/140 64/62/140
f 67/64/141 69/87/141 65/63/141
f 71/66/142 67/64/142 70/65/142
f 54/50/143 67/64/143 68/48/143
f 54/50/144 70/65/144 67/64/144
f 12/13/145 73/27/145 50/46/145
f 74/68/146 77/70/146 73/27/146
f 36/33/147 75/69/147 35/31/147
f 75/69/148 78/71/148 77/70/148
f 36/33/149 35/31/149 34/28/149
f 73/27/150 79/73/150 50/46/150
f 79/73/151 53/51/151 51/72/151
f 53/51/152 52/49/152 51/72/152
f 53/51/153 79/73/153 77/70/153
f 77/70/154 78/71/154 85/74/154
f 43/42/155 44/43/155 82/76/155
f 42/41/156 87/81/156 76/32/156
f 84/80/157 58/78/157 63/60/157
f 87/81/158 36/33/158 76/32/158
f 36/33/159 87/81/159 78/71/159
f 43/42/160 87/81/160 42/41/160
f 83/79/161 82/76/161 58/78/161
f 53/51/162 72/67/162 54/50/162
f 84/80/163 63/60/163 69/87/163
f 84/80/164 69/87/164 67/64/164
f 85/74/165 86/82/165 72/67/165
f 87/81/166 85/74/166 78/71/166
f 82/76/167 83/79/167 84/80/167
f 82/76/168 84/80/168 71/66/168
f 87/81/169 86/82/169 85/74/169
f 82/76/170 71/66/170 86/82/170
