# Blender 4.2.1 LTS
# www.blender.org
mtllib collision.mtl
o textured_simple
v -0.044326 0.032238 -0.017374
v -0.046163 0.034358 0.008665
v -0.026158 -0.048182 -0.017788
v 0.042153 -0.032658 -0.017893
v -0.025122 -0.047312 0.009218
v 0.041633 -0.031647 0.008677
v 0.022729 0.050049 0.009006
v 0.023391 0.050095 -0.016096
vn -0.9720 -0.2351 -0.0014
vn -0.0061 0.0052 1.0000
vn 0.9752 0.2209 0.0107
vn 0.2286 -0.9733 0.0226
vn -0.2206 0.9708 -0.0946
vn -0.0026 0.0046 -1.0000
vn 0.2215 -0.9743 0.0414
vn 0.0086 -0.0020 1.0000
vn -0.2549 0.9670 -0.0049
vn 0.0124 0.0245 -0.9996
vn 0.9739 0.2253 0.0261
vt 0.455294 0.074621
vt 0.500424 0.139399
vt 0.511087 0.551525
vt 0.469788 0.643405
vt 0.824535 0.542496
vt 0.584688 0.618128
vt 0.838962 0.154486
vt 0.445298 0.136676
s 0
usemtl material_0.019
f 3/1/1 5/2/1 2/3/1 1/4/1
f 7/5/2 2/3/2 5/2/2
f 8/6/3 6/7/3 4/8/3
f 6/7/4 5/2/4 3/1/4
f 2/3/5 7/5/5 1/4/5
f 1/4/6 4/8/6 3/1/6
f 6/7/7 3/1/7 4/8/7
f 7/5/8 5/2/8 6/7/8
f 7/5/9 8/6/9 1/4/9
f 8/6/10 4/8/10 1/4/10
f 7/5/11 6/7/11 8/6/11
