# Blender 4.2.1 LTS
# www.blender.org
mtllib collision.mtl
o textured_simple
v -0.031264 -0.080076 -0.109559
v 0.025320 -0.082258 0.010829
v -0.028209 0.078984 -0.110657
v -0.037285 -0.009293 -0.075149
v -0.033536 -0.080860 0.101331
v -0.032902 0.077744 0.100724
v -0.034005 0.072681 -0.103514
v -0.030442 0.077599 0.068534
v 0.026258 0.077631 0.032357
v 0.029031 -0.080679 -0.109313
v 0.028433 0.077112 -0.106951
v 0.036836 -0.004883 -0.091218
v 0.029462 -0.081355 0.078834
v 0.026274 -0.080558 0.098880
v 0.027782 0.077251 0.099194
vn -0.0099 -0.9999 -0.0135
vn 0.0040 -0.0070 -1.0000
vn -0.0092 -1.0000 -0.0038
vn -0.9968 -0.0794 -0.0110
vn -0.9997 0.0041 0.0229
vn -0.9888 -0.0119 -0.1486
vn -0.7810 0.0107 -0.6244
vn 0.0044 1.0000 0.0078
vn -0.9991 0.0415 0.0044
vn -0.2407 0.9703 -0.0228
vn 0.0080 1.0000 -0.0039
vn 0.0658 0.0152 -0.9977
vn 0.9936 -0.1093 0.0292
vn 0.0067 -0.9991 0.0408
vn 0.0410 -0.0024 0.9992
vn 0.9025 0.0099 -0.4306
vn 0.9944 0.1048 0.0151
vn 0.0252 0.0037 0.9997
vn 0.9997 0.0135 -0.0227
vn -0.7382 0.6745 -0.0040
vn 0.0332 0.9994 -0.0032
vn 0.9950 -0.0190 0.0979
vn -0.0765 -0.9969 0.0179
vn 0.9981 0.0023 -0.0608
vn 0.0030 1.0000 0.0056
vn 0.9875 -0.0098 0.1574
vt 0.636665 0.405945
vt 0.504476 0.146307
vt 0.560949 0.074510
vt 0.159897 0.141284
vt 0.684860 0.538563
vt 0.502014 0.611311
vt 0.377009 0.275700
vt 0.156167 0.608847
vt 0.168464 0.157498
vt 0.112057 0.520079
vt 0.764014 0.470053
vt 0.235716 0.616250
vt 0.367807 0.061688
vt 0.803620 0.187116
vt 0.556730 0.682652
s 0
usemtl material_0.004
f 2/1/1 1/2/1 10/3/1
f 3/4/2 10/3/2 1/2/2
f 13/5/3 5/6/3 1/2/3
f 4/7/4 1/2/4 5/6/4
f 6/8/5 4/7/5 5/6/5
f 1/2/6 4/7/6 7/9/6
f 3/4/7 1/2/7 7/9/7
f 8/10/8 9/11/8 3/4/8
f 7/9/9 4/7/9 6/8/9
f 8/10/10 7/9/10 6/8/10
f 6/8/11 15/12/11 8/10/11
f 11/13/12 10/3/12 3/4/12
f 2/1/13 10/3/13 12/14/13
f 5/6/14 13/5/14 14/15/14
f 5/6/15 14/15/15 15/12/15
f 11/13/16 12/14/16 10/3/16
f 11/13/17 9/11/17 12/14/17
f 6/8/18 5/6/18 15/12/18
f 9/11/19 15/12/19 13/5/19
f 8/10/20 3/4/20 7/9/20
f 9/11/21 11/13/21 3/4/21
f 9/11/22 2/1/22 12/14/22
f 2/1/23 13/5/23 1/2/23
f 9/11/24 13/5/24 2/1/24
f 15/12/25 9/11/25 8/10/25
f 13/5/26 15/12/26 14/15/26
